<svg width="296" height="137" viewBox="0 0 296 137" fill="none" xmlns="http://www.w3.org/2000/svg">
<path d="M70.4074 9.65332V43.6279C70.4074 45.1546 70.7834 46.1572 71.5353 46.6357C72.2873 47.0915 73.2443 47.3193 74.4064 47.3193H75.3293V60H46.55V47.3193H47.883C49.0907 47.3193 49.9794 46.9434 50.549 46.1914C51.1415 45.4167 51.4377 44.585 51.4377 43.6963V26.1963C51.4377 24.8747 51.0161 23.9062 50.173 23.291C49.3527 22.653 48.3957 22.334 47.3019 22.334H46.55V9.65332H70.4074Z" fill="#F9E784"/>
<path d="M104.773 22.334V43.6279C104.773 45.1546 105.149 46.1572 105.901 46.6357C106.653 47.0915 107.61 47.3193 108.772 47.3193H109.695V60H80.9156V47.3193H82.2486C83.4563 47.3193 84.345 46.9434 84.9146 46.1914C85.5071 45.4167 85.8033 44.585 85.8033 43.6963V38.877C85.8033 37.5553 85.3818 36.5869 84.5387 35.9717C83.7183 35.3337 82.7613 35.0146 81.6676 35.0146H80.9156V22.334H104.773ZM85.2564 13.9258C85.2564 11.9661 85.997 10.2913 87.4781 8.90137C88.982 7.51139 91.1125 6.81641 93.8697 6.81641C96.6724 6.81641 98.8258 7.51139 100.33 8.90137C101.856 10.2913 102.62 11.9661 102.62 13.9258C102.62 15.931 101.856 17.6286 100.33 19.0186C98.8258 20.3857 96.6724 21.0693 93.8697 21.0693C91.1125 21.0693 88.982 20.3857 87.4781 19.0186C85.997 17.6286 85.2564 15.931 85.2564 13.9258Z" fill="#F9E784"/>
<path d="M154.075 34.8096H144.676C144.015 33.1689 142.99 31.8701 141.6 30.9131C140.21 29.9561 138.763 29.4775 137.259 29.4775C136.233 29.4775 135.413 29.6712 134.798 30.0586C134.205 30.4232 133.909 30.9814 133.909 31.7334C133.909 32.6676 134.433 33.374 135.481 33.8525C136.53 34.3083 137.84 34.7184 139.412 35.083C141.007 35.4476 142.728 35.8919 144.573 36.416C146.419 36.9173 148.128 37.6465 149.7 38.6035C151.295 39.5605 152.617 40.848 153.665 42.4658C154.713 44.0837 155.237 46.2142 155.237 48.8574C155.237 50.9082 154.782 52.6969 153.87 54.2236C152.959 55.7503 151.705 57.0036 150.11 57.9834C148.538 58.9632 146.681 59.6924 144.539 60.1709C142.397 60.6722 140.084 60.9229 137.601 60.9229C135.185 60.9229 132.895 60.6836 130.73 60.2051C128.589 59.7493 126.538 58.9632 124.578 57.8467L124.236 60.2051H115.213V46.499H124.578C125.467 48.3219 126.583 49.7347 127.928 50.7373C129.295 51.7399 130.799 52.2412 132.439 52.2412C133.693 52.2412 134.581 52.0133 135.105 51.5576C135.652 51.0791 135.926 50.555 135.926 49.9854C135.926 49.0511 135.402 48.3333 134.354 47.832C133.305 47.3079 132.007 46.8522 130.457 46.4648C128.93 46.0547 127.244 45.6104 125.398 45.1318C123.553 44.6305 121.855 43.9128 120.306 42.9785C118.779 42.0443 117.492 40.791 116.443 39.2188C115.395 37.6237 114.871 35.5387 114.871 32.9639C114.871 31.1182 115.281 29.432 116.102 27.9053C116.945 26.3786 118.141 25.0911 119.69 24.043C121.24 22.9948 123.063 22.1973 125.159 21.6504C127.256 21.0807 129.557 20.7959 132.063 20.7959C134.866 20.7959 137.384 21.1149 139.617 21.7529C141.873 22.3682 143.559 23.0518 144.676 23.8037L145.018 21.377H154.075V34.8096Z" fill="#F9E784"/>
<path d="M184.544 9.65332V22.334H194.764V35.0146H184.544V45.5078C184.544 47.0117 184.749 48.2422 185.16 49.1992C185.592 50.1562 186.47 50.6348 187.791 50.6348C188.521 50.6348 189.102 50.498 189.535 50.2246C189.99 49.9284 190.343 49.5524 190.594 49.0967C190.868 48.6182 191.038 48.0827 191.107 47.4902C191.175 46.875 191.209 46.2142 191.209 45.5078V40.415H195.14V45.918C195.14 48.1283 194.901 50.1904 194.422 52.1045C193.967 54.0186 193.169 55.6706 192.03 57.0605C190.913 58.4505 189.386 59.5557 187.45 60.376C185.513 61.1963 183.075 61.6064 180.135 61.6064C176.877 61.6064 174.279 61.2077 172.342 60.4102C170.405 59.6126 168.936 58.5189 167.933 57.1289C166.93 55.7389 166.27 54.0869 165.951 52.1729C165.654 50.2588 165.506 48.1738 165.506 45.918V35.0146H160.14V23.7354C161.849 23.7354 163.433 23.3708 164.891 22.6416C166.372 21.8896 167.637 20.8643 168.685 19.5654C169.756 18.2438 170.576 16.7399 171.146 15.0537C171.738 13.3675 172.035 11.5674 172.035 9.65332H184.544Z" fill="#F9E784"/>
<path d="M217.611 27.085C216.449 27.085 215.446 27.1761 214.603 27.3584C213.783 27.5179 213.077 27.7116 212.484 27.9395C211.892 28.1673 211.402 28.4294 211.014 28.7256C210.627 28.999 210.285 29.2497 209.989 29.4775L210.331 29.8193C210.764 29.5915 211.231 29.3636 211.732 29.1357C212.256 28.9079 212.917 28.7939 213.715 28.7939C215.059 28.7939 216.221 29.2383 217.201 30.127C218.181 30.9928 218.671 32.3828 218.671 34.2969C218.671 36.1198 217.919 37.5895 216.415 38.7061C214.934 39.7998 212.94 40.3467 210.433 40.3467C208.041 40.3467 206.127 39.6631 204.691 38.2959C203.278 36.9059 202.572 34.9463 202.572 32.417C202.572 31.027 202.959 29.6484 203.734 28.2812C204.509 26.8913 205.705 25.6494 207.323 24.5557C208.964 23.4619 211.037 22.5618 213.544 21.8555C216.073 21.1491 219.115 20.7959 222.67 20.7959C226.908 20.7959 230.372 21.1947 233.06 21.9922C235.749 22.7897 237.834 23.8151 239.315 25.0684C240.819 26.3216 241.845 27.7458 242.391 29.3408C242.961 30.9359 243.246 32.5423 243.246 34.1602V47.5244C243.246 49.598 243.314 51.0107 243.451 51.7627C243.588 52.4919 244.1 52.8564 244.989 52.8564C245.695 52.8564 246.185 52.526 246.459 51.8652C246.755 51.1816 246.903 50.0195 246.903 48.3789V44.1064H250.8V48.4473C250.8 50.498 250.629 52.321 250.287 53.916C249.945 55.4883 249.296 56.8441 248.339 57.9834C247.382 59.0999 246.083 59.943 244.442 60.5127C242.802 61.1051 240.705 61.4014 238.153 61.4014C235.852 61.4014 233.938 61.1507 232.411 60.6494C230.907 60.1709 229.711 59.5671 228.822 58.8379C227.933 58.1087 227.295 57.3568 226.908 56.582C226.543 55.7845 226.361 55.0781 226.361 54.4629H225.814C225.678 55.3971 225.279 56.2858 224.618 57.1289C223.98 57.972 223.08 58.724 221.918 59.3848C220.778 60.0228 219.4 60.5355 217.782 60.9229C216.187 61.333 214.364 61.5381 212.313 61.5381C210.354 61.5381 208.565 61.3444 206.947 60.957C205.352 60.5924 203.985 60.0114 202.845 59.2139C201.729 58.3936 200.852 57.3454 200.214 56.0693C199.598 54.7705 199.291 53.2324 199.291 51.4551C199.291 49.2676 199.906 47.5472 201.137 46.2939C202.367 45.0179 203.916 44.0153 205.785 43.2861C207.653 42.5342 209.681 41.9303 211.869 41.4746C214.079 40.9961 216.119 40.4264 217.987 39.7656C219.856 39.1048 221.405 38.2503 222.636 37.2021C223.866 36.154 224.481 34.6729 224.481 32.7588C224.481 31.0498 223.946 29.6826 222.875 28.6572C221.804 27.609 220.049 27.085 217.611 27.085ZM224.481 41.8848C223.98 42.6139 223.353 43.2064 222.601 43.6621C221.849 44.0951 221.12 44.528 220.414 44.9609C219.73 45.3711 219.126 45.8724 218.602 46.4648C218.101 47.0345 217.85 47.8092 217.85 48.7891C217.85 49.541 218.055 50.2246 218.466 50.8398C218.876 51.4323 219.673 51.7285 220.858 51.7285C221.929 51.7285 222.795 51.3184 223.456 50.498C224.139 49.6549 224.481 48.4814 224.481 46.9775V41.8848Z" fill="#F9E784"/>
<path d="M24.8801 79.085C23.718 79.085 22.7154 79.1761 21.8723 79.3584C21.0519 79.5179 20.3456 79.7116 19.7531 79.9395C19.1607 80.1673 18.6708 80.4294 18.2834 80.7256C17.896 80.999 17.5542 81.2497 17.258 81.4775L17.5998 81.8193C18.0327 81.5915 18.4999 81.3636 19.0012 81.1357C19.5252 80.9079 20.1861 80.7939 20.9836 80.7939C22.328 80.7939 23.4901 81.2383 24.4699 82.127C25.4497 82.9928 25.9396 84.3828 25.9396 86.2969C25.9396 88.1198 25.1877 89.5895 23.6838 90.7061C22.2027 91.7998 20.2088 92.3467 17.7023 92.3467C15.3098 92.3467 13.3957 91.6631 11.9601 90.2959C10.5474 88.9059 9.841 86.9463 9.841 84.417C9.841 83.027 10.2284 81.6484 11.0031 80.2812C11.7779 78.8913 12.9741 77.6494 14.592 76.5557C16.2326 75.4619 18.3062 74.5619 20.8127 73.8555C23.342 73.1491 26.384 72.7959 29.9387 72.7959C34.1769 72.7959 37.6405 73.1947 40.3293 73.9922C43.0181 74.7897 45.103 75.8151 46.5842 77.0684C48.0881 78.3216 49.1135 79.7458 49.6603 81.3408C50.23 82.9359 50.5148 84.5423 50.5148 86.1602V99.5244C50.5148 101.598 50.5832 103.011 50.7199 103.763C50.8566 104.492 51.3693 104.856 52.258 104.856C52.9644 104.856 53.4543 104.526 53.7277 103.865C54.0239 103.182 54.1721 102.02 54.1721 100.379V96.1064H58.0685V100.447C58.0685 102.498 57.8976 104.321 57.5558 105.916C57.2141 107.488 56.5646 108.844 55.6076 109.983C54.6506 111.1 53.3517 111.943 51.7111 112.513C50.0705 113.105 47.9741 113.401 45.4221 113.401C43.1206 113.401 41.2066 113.151 39.6799 112.649C38.176 112.171 36.9797 111.567 36.091 110.838C35.2023 110.109 34.5643 109.357 34.1769 108.582C33.8124 107.785 33.6301 107.078 33.6301 106.463H33.0832C32.9465 107.397 32.5477 108.286 31.8869 109.129C31.2489 109.972 30.3488 110.724 29.1867 111.385C28.0474 112.023 26.6688 112.535 25.051 112.923C23.4559 113.333 21.633 113.538 19.5822 113.538C17.6226 113.538 15.8338 113.344 14.216 112.957C12.621 112.592 11.2538 112.011 10.1144 111.214C8.9979 110.394 8.12063 109.345 7.4826 108.069C6.86737 106.771 6.55975 105.232 6.55975 103.455C6.55975 101.268 7.17499 99.5472 8.40546 98.2939C9.63593 97.0179 11.1854 96.0153 13.0539 95.2861C14.9224 94.5342 16.9504 93.9303 19.1379 93.4746C21.3482 92.9961 23.3876 92.4264 25.256 91.7656C27.1245 91.1048 28.674 90.2503 29.9045 89.2021C31.1349 88.154 31.7502 86.6729 31.7502 84.7588C31.7502 83.0498 31.2147 81.6826 30.1437 80.6572C29.0728 79.609 27.3182 79.085 24.8801 79.085ZM31.7502 93.8848C31.2489 94.6139 30.6223 95.2064 29.8703 95.6621C29.1183 96.0951 28.3892 96.528 27.6828 96.9609C26.9992 97.3711 26.3954 97.8724 25.8713 98.4648C25.37 99.0345 25.1193 99.8092 25.1193 100.789C25.1193 101.541 25.3244 102.225 25.7346 102.84C26.1447 103.432 26.9422 103.729 28.1271 103.729C29.1981 103.729 30.064 103.318 30.7248 102.498C31.4084 101.655 31.7502 100.481 31.7502 98.9775V93.8848Z" fill="#F9E784"/>
<path d="M111.985 95.9697C111.985 97.1774 112.19 98.0433 112.6 98.5674C113.033 99.0687 113.853 99.3193 115.061 99.3193H116.189V112H93.2203V90.1592C93.2203 89.2705 93.1292 88.5641 92.9469 88.04C92.7646 87.4932 92.5139 87.083 92.1949 86.8096C91.8987 86.5133 91.5455 86.3197 91.1353 86.2285C90.748 86.1374 90.372 86.0918 90.0074 86.0918C88.5035 86.0918 87.4667 86.5247 86.8971 87.3906C86.3502 88.2565 86.0767 89.487 86.0767 91.082V95.9697C86.0767 97.1774 86.2818 98.0433 86.692 98.5674C87.1249 99.0687 87.9452 99.3193 89.1529 99.3193H90.2808V112H62.4244V99.3193H64.441C65.3752 99.3193 66.0816 99.0231 66.5601 98.4307C67.0614 97.8154 67.3121 97.0863 67.3121 96.2432V89.749C67.3121 88.6781 66.9931 87.9603 66.3551 87.5957C65.7398 87.2083 65.0334 87.0146 64.2359 87.0146H62.4244V74.334H82.7271L82.0094 83.7334H82.5904C83.0917 80.2243 84.5045 77.5241 86.8287 75.6328C89.1757 73.7415 92.5709 72.7959 97.0142 72.7959C98.6777 72.7959 100.227 73.0238 101.663 73.4795C103.121 73.9124 104.408 74.5846 105.525 75.4961C106.664 76.4076 107.553 77.5583 108.191 78.9482C108.852 80.3154 109.228 81.9105 109.319 83.7334H109.797C110.003 82.0016 110.504 80.4521 111.301 79.085C112.122 77.695 113.147 76.5443 114.378 75.6328C115.631 74.7214 116.998 74.0264 118.479 73.5479C119.983 73.0465 121.555 72.7959 123.196 72.7959C126.226 72.7959 128.699 73.2402 130.613 74.1289C132.527 75.0176 134.019 76.1455 135.09 77.5127C136.161 78.8571 136.891 80.3268 137.278 81.9219C137.688 83.4941 137.893 84.9753 137.893 86.3652V95.9697C137.893 97.1774 138.098 98.0433 138.508 98.5674C138.941 99.0687 139.762 99.3193 140.969 99.3193H142.781V112H119.129V90.1592C119.129 89.2705 119.026 88.5641 118.821 88.04C118.639 87.4932 118.399 87.083 118.103 86.8096C117.807 86.5133 117.454 86.3197 117.044 86.2285C116.656 86.1374 116.28 86.0918 115.916 86.0918C114.412 86.0918 113.375 86.5247 112.805 87.3906C112.258 88.2565 111.985 89.487 111.985 91.082V95.9697Z" fill="#F9E784"/>
<path d="M172.259 74.334V95.6279C172.259 97.1546 172.635 98.1572 173.387 98.6357C174.139 99.0915 175.096 99.3193 176.258 99.3193H177.181V112H148.401V99.3193H149.734C150.942 99.3193 151.831 98.9434 152.4 98.1914C152.993 97.4167 153.289 96.585 153.289 95.6963V90.877C153.289 89.5553 152.867 88.5869 152.024 87.9717C151.204 87.3337 150.247 87.0146 149.153 87.0146H148.401V74.334H172.259ZM152.742 65.9258C152.742 63.9661 153.483 62.2913 154.964 60.9014C156.468 59.5114 158.598 58.8164 161.355 58.8164C164.158 58.8164 166.312 59.5114 167.815 60.9014C169.342 62.2913 170.105 63.9661 170.105 65.9258C170.105 67.931 169.342 69.6286 167.815 71.0186C166.312 72.3857 164.158 73.0693 161.355 73.0693C158.598 73.0693 156.468 72.3857 154.964 71.0186C153.483 69.6286 152.742 67.931 152.742 65.9258Z" fill="#F9E784"/>
<path d="M231.541 118.221C231.541 122.094 229.308 125.057 224.842 127.107C220.399 129.158 213.962 130.184 205.531 130.184C202.477 130.184 199.504 130.138 196.61 130.047C193.716 129.956 191.152 129.648 188.919 129.124C186.686 128.623 184.886 127.814 183.519 126.697C182.175 125.581 181.502 123.997 181.502 121.946C181.502 120.306 182.026 118.961 183.075 117.913C184.123 116.865 185.251 116.033 186.458 115.418C184.977 114.529 183.963 113.538 183.416 112.444C182.892 111.351 182.63 110.154 182.63 108.855C182.63 107.306 183.189 105.825 184.305 104.412C185.422 102.977 187.028 101.587 189.124 100.242C187.074 98.8978 185.501 97.2572 184.408 95.3203C183.314 93.3835 182.767 91.082 182.767 88.416C182.767 85.8411 183.302 83.5853 184.373 81.6484C185.444 79.7116 186.982 78.0938 188.988 76.7949C190.993 75.4961 193.385 74.5049 196.165 73.8213C198.945 73.1377 202.067 72.7959 205.531 72.7959C209.245 72.7959 212.594 73.1947 215.579 73.9922C218.587 74.7897 221.139 75.9974 223.236 77.6152C223.646 77.0684 224.204 76.5329 224.911 76.0088C225.503 75.5986 226.255 75.2227 227.166 74.8809C228.078 74.5163 229.194 74.334 230.516 74.334H233.661V87.0146H231.405C230.425 87.0146 229.673 87.2881 229.149 87.835C228.648 88.359 228.351 88.8717 228.26 89.373C227.463 94.181 225.138 97.8496 221.287 100.379C217.437 102.908 212.184 104.173 205.531 104.173C201.794 104.173 198.41 103.774 195.379 102.977C194.901 103.296 194.662 103.694 194.662 104.173C194.662 105.062 195.186 105.688 196.234 106.053C197.282 106.417 198.672 106.668 200.404 106.805C202.135 106.919 204.107 106.964 206.317 106.941C208.527 106.896 210.783 106.93 213.084 107.044C215.409 107.135 217.676 107.34 219.886 107.659C222.119 107.978 224.09 108.548 225.799 109.368C227.531 110.188 228.921 111.305 229.969 112.718C231.017 114.153 231.541 115.988 231.541 118.221ZM200.745 88.416C200.745 90.7858 201.076 92.6201 201.737 93.9189C202.398 95.195 203.662 95.833 205.531 95.833C207.422 95.833 208.698 95.195 209.359 93.9189C210.02 92.6201 210.35 90.7858 210.35 88.416C210.35 86.069 210.02 84.2803 209.359 83.0498C208.698 81.8193 207.422 81.2041 205.531 81.2041C203.662 81.2041 202.398 81.8193 201.737 83.0498C201.076 84.2803 200.745 86.069 200.745 88.416ZM207.069 118.733C204.631 118.733 202.42 118.665 200.438 118.528C198.455 118.414 196.667 118.243 195.072 118.016C194.844 118.403 194.73 118.802 194.73 119.212C194.73 120.853 195.619 121.924 197.396 122.425C199.173 122.949 201.509 123.211 204.403 123.211C208.276 123.211 211.102 122.972 212.879 122.493C214.679 122.037 215.579 121.388 215.579 120.545C215.579 120.112 215.317 119.782 214.793 119.554C214.292 119.326 213.62 119.144 212.777 119.007C211.956 118.87 211.045 118.79 210.042 118.768C209.04 118.745 208.049 118.733 207.069 118.733Z" fill="#F9E784"/>
<path d="M256.132 79.085C254.97 79.085 253.967 79.1761 253.124 79.3584C252.303 79.5179 251.597 79.7116 251.005 79.9395C250.412 80.1673 249.922 80.4294 249.535 80.7256C249.148 80.999 248.806 81.2497 248.51 81.4775L248.851 81.8193C249.284 81.5915 249.751 81.3636 250.253 81.1357C250.777 80.9079 251.438 80.7939 252.235 80.7939C253.58 80.7939 254.742 81.2383 255.721 82.127C256.701 82.9928 257.191 84.3828 257.191 86.2969C257.191 88.1198 256.439 89.5895 254.935 90.7061C253.454 91.7998 251.46 92.3467 248.954 92.3467C246.561 92.3467 244.647 91.6631 243.212 90.2959C241.799 88.9059 241.093 86.9463 241.093 84.417C241.093 83.027 241.48 81.6484 242.255 80.2812C243.029 78.8913 244.226 77.6494 245.844 76.5557C247.484 75.4619 249.558 74.5619 252.064 73.8555C254.594 73.1491 257.636 72.7959 261.19 72.7959C265.428 72.7959 268.892 73.1947 271.581 73.9922C274.27 74.7897 276.355 75.8151 277.836 77.0684C279.34 78.3216 280.365 79.7458 280.912 81.3408C281.482 82.9359 281.766 84.5423 281.766 86.1602V99.5244C281.766 101.598 281.835 103.011 281.971 103.763C282.108 104.492 282.621 104.856 283.51 104.856C284.216 104.856 284.706 104.526 284.979 103.865C285.276 103.182 285.424 102.02 285.424 100.379V96.1064H289.32V100.447C289.32 102.498 289.149 104.321 288.807 105.916C288.466 107.488 287.816 108.844 286.859 109.983C285.902 111.1 284.603 111.943 282.963 112.513C281.322 113.105 279.226 113.401 276.674 113.401C274.372 113.401 272.458 113.151 270.931 112.649C269.428 112.171 268.231 111.567 267.343 110.838C266.454 110.109 265.816 109.357 265.428 108.582C265.064 107.785 264.882 107.078 264.882 106.463H264.335C264.198 107.397 263.799 108.286 263.138 109.129C262.5 109.972 261.6 110.724 260.438 111.385C259.299 112.023 257.92 112.535 256.303 112.923C254.707 113.333 252.885 113.538 250.834 113.538C248.874 113.538 247.085 113.344 245.468 112.957C243.873 112.592 242.505 112.011 241.366 111.214C240.249 110.394 239.372 109.345 238.734 108.069C238.119 106.771 237.811 105.232 237.811 103.455C237.811 101.268 238.427 99.5472 239.657 98.2939C240.887 97.0179 242.437 96.0153 244.305 95.2861C246.174 94.5342 248.202 93.9303 250.389 93.4746C252.6 92.9961 254.639 92.4264 256.508 91.7656C258.376 91.1048 259.926 90.2503 261.156 89.2021C262.387 88.154 263.002 86.6729 263.002 84.7588C263.002 83.0498 262.466 81.6826 261.395 80.6572C260.324 79.609 258.57 79.085 256.132 79.085ZM263.002 93.8848C262.5 94.6139 261.874 95.2064 261.122 95.6621C260.37 96.0951 259.641 96.528 258.934 96.9609C258.251 97.3711 257.647 97.8724 257.123 98.4648C256.622 99.0345 256.371 99.8092 256.371 100.789C256.371 101.541 256.576 102.225 256.986 102.84C257.396 103.432 258.194 103.729 259.379 103.729C260.45 103.729 261.316 103.318 261.976 102.498C262.66 101.655 263.002 100.481 263.002 98.9775V93.8848Z" fill="#F9E784"/>
<path d="M231.812 103.455C231.812 100.107 232.786 96.7355 235.365 94.1016C235.736 93.7195 236.121 93.3579 236.521 93.0146H233.591C232.45 97.1153 230.308 100.635 227.169 103.416C227.574 103.581 227.973 103.757 228.366 103.945C228.371 103.947 228.377 103.95 228.381 103.952C228.386 103.954 228.391 103.957 228.396 103.959C229.699 104.579 230.908 105.336 232.006 106.233C231.872 105.315 231.812 104.385 231.812 103.455ZM195.072 118.016C196.667 118.243 198.455 118.414 200.438 118.528C202.42 118.665 204.631 118.733 207.069 118.733C208.049 118.733 209.04 118.745 210.042 118.768C210.727 118.783 211.368 118.827 211.968 118.896L212.466 120.864L212.777 119.007C213.62 119.144 214.292 119.326 214.793 119.554L213.607 122.28C213.383 122.355 213.141 122.427 212.879 122.493C211.102 122.972 208.276 123.211 204.403 123.211C201.509 123.211 199.173 122.949 197.396 122.425C195.619 121.924 194.73 120.853 194.73 119.212C194.73 118.802 194.844 118.403 195.072 118.016ZM213.607 122.28L214.793 119.554C215.317 119.782 215.579 120.112 215.579 120.545L215.569 120.701C215.479 121.35 214.825 121.875 213.607 122.28ZM212.466 120.864L211.968 118.896C212.247 118.927 212.516 118.963 212.777 119.007L212.521 120.545L212.466 120.864ZM31.7502 98.9775C31.7502 100.481 31.4084 101.655 30.7248 102.498C30.064 103.318 29.1981 103.729 28.1271 103.729C26.9422 103.729 26.1447 103.432 25.7346 102.84C25.3244 102.225 25.1193 101.541 25.1193 100.789C25.1193 99.8092 25.37 99.0345 25.8713 98.4648C26.3954 97.8724 26.9992 97.3711 27.6828 96.9609C28.3892 96.528 29.1183 96.0951 29.8703 95.6621C30.6223 95.2064 31.2489 94.6139 31.7502 93.8848V98.9775ZM263.002 98.9775C263.002 100.481 262.66 101.655 261.976 102.498C261.316 103.318 260.45 103.729 259.379 103.729C258.194 103.729 257.396 103.432 256.986 102.84C256.576 102.225 256.371 101.541 256.371 100.789C256.371 99.8092 256.622 99.0345 257.123 98.4648C257.647 97.8724 258.251 97.3711 258.934 96.9609C259.641 96.528 260.37 96.0951 261.122 95.6621C261.874 95.2064 262.5 94.6139 263.002 93.8848V98.9775ZM200.745 88.416C200.745 86.069 201.076 84.2803 201.737 83.0498C202.398 81.8193 203.662 81.2041 205.531 81.2041L205.878 81.2109C207.579 81.283 208.739 81.8963 209.359 83.0498C210.02 84.2803 210.35 86.069 210.35 88.416L210.346 88.8545C210.307 91.0132 209.978 92.7014 209.359 93.9189L209.228 94.1504C208.536 95.2721 207.304 95.833 205.531 95.833L205.188 95.8252C203.618 95.7555 202.512 95.1975 201.867 94.1504L201.737 93.9189C201.117 92.7014 200.788 91.0132 200.749 88.8545L200.745 88.416ZM143.893 93.3193H147.289V93.0146H143.893V93.3193ZM196.383 61.2061C194.589 63.2968 192.321 64.8292 189.789 65.9014C186.88 67.1333 183.581 67.6064 180.135 67.6064C178.732 67.6064 177.355 67.5411 176.025 67.3936C175.99 67.7109 175.945 68.0246 175.888 68.334H178.259V80.5381C178.512 79.9289 178.799 79.3304 179.122 78.7451C180.708 75.8769 182.96 73.5503 185.726 71.7588C188.391 70.0324 191.428 68.8077 194.733 67.9951C198.067 67.1752 201.681 66.7959 205.53 66.7959C205.542 66.7959 205.555 66.7959 205.567 66.7959C203.364 66.2875 201.268 65.433 199.404 64.1289L199.349 64.0898L199.293 64.0488C198.179 63.2301 197.208 62.2764 196.383 61.2061ZM132.063 20.7959C129.557 20.7959 127.256 21.0807 125.159 21.6504L124.386 21.8672C122.611 22.4005 121.046 23.1258 119.69 24.043L119.404 24.2422C117.993 25.2529 116.892 26.4739 116.102 27.9053L115.952 28.1934C115.231 29.6433 114.871 31.2335 114.871 32.9639L114.877 33.4404C114.938 35.7972 115.461 37.7233 116.443 39.2188L116.643 39.5098C117.653 40.9464 118.874 42.1027 120.306 42.9785C121.855 43.9128 123.553 44.6305 125.398 45.1318C127.244 45.6104 128.93 46.0547 130.457 46.4648C132.007 46.8522 133.305 47.3079 134.354 47.832L134.544 47.9287C135.465 48.424 135.926 49.1096 135.926 49.9854L135.913 50.1973C135.853 50.6856 135.584 51.1391 135.105 51.5576L135.003 51.6406C134.469 52.0412 133.614 52.2412 132.439 52.2412L132.246 52.2373C130.681 52.1994 129.241 51.7004 127.928 50.7373C126.583 49.7347 125.467 48.3219 124.578 46.499H115.213V60.2051H124.236L124.578 57.8467C126.538 58.9632 128.589 59.7493 130.73 60.2051C132.624 60.6237 134.615 60.8598 136.7 60.9121L137.601 60.9229C140.084 60.9229 142.397 60.6722 144.539 60.1709C146.681 59.6924 148.538 58.9632 150.11 57.9834C151.606 57.0648 152.801 55.906 153.695 54.5068L153.87 54.2236C154.725 52.7925 155.178 51.131 155.232 49.2393L155.237 48.8574C155.237 46.3795 154.777 44.3522 153.856 42.7754L153.665 42.4658C152.617 40.848 151.295 39.5605 149.7 38.6035C148.128 37.6465 146.419 36.9173 144.573 36.416C142.728 35.8919 141.007 35.4476 139.412 35.083C138.036 34.764 136.861 34.4103 135.887 34.0215L135.481 33.8525C134.433 33.374 133.909 32.6676 133.909 31.7334C133.909 31.0283 134.17 30.4934 134.691 30.1289L134.798 30.0586C135.413 29.6712 136.233 29.4775 137.259 29.4775L137.54 29.4834C138.943 29.5395 140.297 30.0159 141.6 30.9131C142.99 31.8701 144.015 33.1689 144.676 34.8096H154.075V21.377H145.018L144.676 23.8037C143.559 23.0518 141.873 22.3682 139.617 21.7529C137.524 21.1548 135.18 20.8372 132.586 20.7998L132.063 20.7959ZM224.481 46.9775C224.481 48.4814 224.139 49.6549 223.456 50.498C222.795 51.3184 221.929 51.7285 220.858 51.7285C219.673 51.7285 218.876 51.4323 218.466 50.8398C218.055 50.2246 217.85 49.541 217.85 48.7891C217.85 47.8092 218.101 47.0345 218.602 46.4648C219.126 45.8724 219.73 45.3711 220.414 44.9609C221.12 44.528 221.849 44.0951 222.601 43.6621C223.353 43.2064 223.98 42.6139 224.481 41.8848V46.9775ZM76.4074 41.3193H79.8029V41.0146H76.4074V41.3193ZM281.766 86.1602C281.766 84.5423 281.482 82.9359 280.912 81.3408C280.399 79.8456 279.466 78.5005 278.112 77.3057L277.836 77.0684C276.447 75.8935 274.528 74.9189 272.078 74.1445L271.581 73.9922C269.06 73.2445 265.858 72.8475 261.976 72.8008L261.19 72.7959C257.636 72.7959 254.594 73.1491 252.064 73.8555C249.558 74.5619 247.484 75.4619 245.844 76.5557C244.226 77.6494 243.029 78.8913 242.255 80.2812C241.48 81.6484 241.093 83.027 241.093 84.417L241.101 84.8848C241.184 87.1891 241.887 88.9928 243.212 90.2959C244.647 91.6631 246.561 92.3467 248.954 92.3467C251.46 92.3467 253.454 91.7998 254.935 90.7061C256.439 89.5895 257.191 88.1198 257.191 86.2969C257.191 84.3828 256.701 82.9928 255.721 82.127C254.742 81.2383 253.58 80.7939 252.235 80.7939C251.438 80.7939 250.777 80.9079 250.253 81.1357C249.751 81.3636 249.284 81.5915 248.851 81.8193L248.51 81.4775C248.806 81.2497 249.148 80.999 249.535 80.7256C249.922 80.4294 250.412 80.1673 251.005 79.9395C251.597 79.7116 252.303 79.5179 253.124 79.3584C253.967 79.1761 254.97 79.085 256.132 79.085C258.57 79.085 260.324 79.609 261.395 80.6572C262.466 81.6826 263.002 83.0498 263.002 84.7588C263.002 86.6729 262.387 88.154 261.156 89.2021C259.926 90.2503 258.376 91.1048 256.508 91.7656C254.639 92.4264 252.6 92.9961 250.389 93.4746C248.202 93.9303 246.174 94.5342 244.305 95.2861C242.437 96.0153 240.887 97.0179 239.657 98.2939C238.427 99.5472 237.811 101.268 237.811 103.455L237.825 104.11C237.893 105.613 238.196 106.933 238.734 108.069L238.985 108.537C239.595 109.604 240.389 110.496 241.366 111.214C242.505 112.011 243.873 112.592 245.468 112.957C246.883 113.296 248.43 113.487 250.107 113.529L250.834 113.538C252.885 113.538 254.707 113.333 256.303 112.923C257.92 112.535 259.299 112.023 260.438 111.385C261.6 110.724 262.5 109.972 263.138 109.129C263.799 108.286 264.198 107.397 264.335 106.463H264.882C264.882 107.078 265.064 107.785 265.428 108.582C265.816 109.357 266.454 110.109 267.343 110.838C268.231 111.567 269.428 112.171 270.931 112.649C272.267 113.088 273.9 113.335 275.828 113.39L276.674 113.401C279.226 113.401 281.322 113.105 282.963 112.513C284.603 111.943 285.902 111.1 286.859 109.983C287.816 108.844 288.466 107.488 288.807 105.916C289.149 104.321 289.32 102.498 289.32 100.447V96.1064H285.424V100.379C285.424 102.02 285.276 103.182 284.979 103.865C284.706 104.526 284.216 104.856 283.51 104.856C282.621 104.856 282.108 104.492 281.971 103.763C281.854 103.119 281.791 101.991 281.775 100.379L281.766 99.5244V86.1602ZM9.841 84.417C9.841 86.9463 10.5474 88.9059 11.9601 90.2959C13.3957 91.6631 15.3098 92.3467 17.7023 92.3467C20.2088 92.3467 22.2027 91.7998 23.6838 90.7061C25.1877 89.5895 25.9396 88.1198 25.9396 86.2969C25.9396 84.3828 25.4497 82.9928 24.4699 82.127C23.4901 81.2383 22.328 80.7939 20.9836 80.7939C20.1861 80.7939 19.5252 80.9079 19.0012 81.1357C18.4999 81.3636 18.0327 81.5915 17.5998 81.8193L17.258 81.4775C17.5542 81.2497 17.896 80.999 18.2834 80.7256C18.6708 80.4294 19.1607 80.1673 19.7531 79.9395C20.3456 79.7116 21.0519 79.5179 21.8723 79.3584C22.7154 79.1761 23.718 79.085 24.8801 79.085C27.3182 79.085 29.0728 79.609 30.1437 80.6572C31.2147 81.6826 31.7502 83.0498 31.7502 84.7588C31.7502 86.6729 31.1349 88.154 29.9045 89.2021C28.674 90.2503 27.1245 91.1048 25.256 91.7656C23.3876 92.4264 21.3482 92.9961 19.1379 93.4746C16.9504 93.9303 14.9224 94.5342 13.0539 95.2861C11.1854 96.0153 9.63593 97.0179 8.40546 98.2939C7.17499 99.5472 6.55975 101.268 6.55975 103.455C6.55975 105.232 6.86737 106.771 7.4826 108.069C8.12063 109.345 8.9979 110.394 10.1144 111.214C11.2538 112.011 12.621 112.592 14.216 112.957C15.8338 113.344 17.6226 113.538 19.5822 113.538C21.633 113.538 23.4559 113.333 25.051 112.923C26.6688 112.535 28.0474 112.023 29.1867 111.385C30.3488 110.724 31.2489 109.972 31.8869 109.129C32.5477 108.286 32.9465 107.397 33.0832 106.463H33.6301C33.6301 107.078 33.8124 107.785 34.1769 108.582C34.5643 109.357 35.2023 110.109 36.091 110.838C36.9797 111.567 38.176 112.171 39.6799 112.649C41.2066 113.151 43.1206 113.401 45.4221 113.401C47.9741 113.401 50.0705 113.105 51.7111 112.513C53.3517 111.943 54.6506 111.1 55.6076 109.983C56.5646 108.844 57.2141 107.488 57.5558 105.916C57.8976 104.321 58.0685 102.498 58.0685 100.447V96.1064H54.1721V100.379C54.1721 102.02 54.0239 103.182 53.7277 103.865C53.4543 104.526 52.9644 104.856 52.258 104.856C51.3693 104.856 50.8566 104.492 50.7199 103.763C50.5832 103.011 50.5148 101.598 50.5148 99.5244V86.1602C50.5148 84.5423 50.23 82.9359 49.6603 81.3408C49.1135 79.7458 48.0881 78.3216 46.5842 77.0684C45.103 75.8151 43.0181 74.7897 40.3293 73.9922C37.6405 73.1947 34.1769 72.7959 29.9387 72.7959C26.384 72.7959 23.342 73.1491 20.8127 73.8555C18.3062 74.5619 16.2326 75.4619 14.592 76.5557C12.9741 77.6494 11.7779 78.8913 11.0031 80.2812C10.2284 81.6484 9.841 83.027 9.841 84.417ZM62.4244 87.0146H64.2359C65.0334 87.0146 65.7398 87.2083 66.3551 87.5957L66.4709 87.668C67.0318 88.0511 67.3121 88.7449 67.3121 89.749V96.2432L67.3 96.5537C67.2452 97.2666 66.9988 97.8923 66.5601 98.4307C66.1414 98.949 65.5481 99.2409 64.7805 99.3057L64.441 99.3193H62.4244V112H90.2808V99.3193H89.1529C87.9452 99.3193 87.1249 99.0687 86.692 98.5674C86.3331 98.1087 86.1309 97.3882 86.0861 96.4062L86.0767 95.9697V91.082C86.0767 89.487 86.3502 88.2565 86.8971 87.3906C87.4667 86.5247 88.5035 86.0918 90.0074 86.0918C90.372 86.0918 90.748 86.1374 91.1353 86.2285L91.2863 86.2676C91.6327 86.3697 91.9357 86.5504 92.1949 86.8096L92.3117 86.9189C92.5757 87.1881 92.7874 87.5618 92.9469 88.04C93.1292 88.5641 93.2203 89.2705 93.2203 90.1592V112H116.189V99.3193H115.061C113.853 99.3193 113.033 99.0687 112.6 98.5674C112.241 98.1087 112.039 97.3882 111.994 96.4062L111.985 95.9697V91.082C111.985 89.487 112.258 88.2565 112.805 87.3906C113.375 86.5247 114.412 86.0918 115.916 86.0918C116.28 86.0918 116.656 86.1374 117.044 86.2285L117.195 86.2676C117.541 86.3697 117.844 86.5504 118.103 86.8096C118.399 87.083 118.639 87.4932 118.821 88.04L118.893 88.2451C119.05 88.7436 119.129 89.3816 119.129 90.1592V112H142.781V99.3193H140.969L140.534 99.3076C139.563 99.2528 138.887 99.006 138.508 98.5674C138.15 98.1087 137.947 97.3882 137.903 96.4062L137.893 95.9697V86.3652C137.893 84.9753 137.688 83.4941 137.278 81.9219C136.915 80.4267 136.251 79.0416 135.287 77.7666L135.09 77.5127C134.086 76.231 132.712 75.159 130.967 74.2979L130.613 74.1289C128.819 73.2959 126.533 72.8529 123.758 72.8008L123.196 72.7959C121.555 72.7959 119.983 73.0465 118.479 73.5479L117.929 73.7373C116.658 74.2034 115.474 74.8353 114.378 75.6328L113.926 75.9854C112.894 76.8353 112.019 77.8686 111.301 79.085C110.504 80.4521 110.003 82.0016 109.797 83.7334H109.319C109.228 81.9105 108.852 80.3154 108.191 78.9482C107.553 77.5583 106.664 76.4076 105.525 75.4961C104.548 74.6986 103.44 74.0844 102.201 73.6533L101.663 73.4795C100.407 73.0808 99.0633 72.8565 97.633 72.8066L97.0142 72.7959C92.5709 72.7959 89.1757 73.7415 86.8287 75.6328C84.5045 77.5241 83.0917 80.2243 82.5904 83.7334H82.0094L82.7271 74.334H62.4244V87.0146ZM148.401 87.0146H149.153C150.247 87.0146 151.204 87.3337 152.024 87.9717L152.178 88.0908C152.919 88.709 153.289 89.638 153.289 90.877V95.6963L153.276 96.0273C153.211 96.7923 152.919 97.5137 152.4 98.1914C151.866 98.8963 151.052 99.2704 149.957 99.3145L149.734 99.3193H148.401V112H177.181V99.3193H176.258L175.831 99.3086C174.859 99.2587 174.045 99.0344 173.387 98.6357C172.682 98.1871 172.307 97.278 172.263 95.9082L172.259 95.6279V74.334H148.401V87.0146ZM152.751 66.2979C152.838 68.1418 153.575 69.7154 154.964 71.0186C156.468 72.3857 158.598 73.0693 161.355 73.0693C164.158 73.0693 166.312 72.3857 167.815 71.0186C169.342 69.6286 170.105 67.931 170.105 65.9258C170.105 63.9661 169.342 62.2913 167.815 60.9014C166.405 59.5982 164.425 58.9056 161.873 58.8242L161.355 58.8164C158.598 58.8164 156.468 59.5114 154.964 60.9014C153.483 62.2913 152.742 63.9661 152.742 65.9258L152.751 66.2979ZM243.246 34.1602C243.246 32.5423 242.961 30.9359 242.391 29.3408C241.845 27.7458 240.819 26.3216 239.315 25.0684C237.927 23.8935 236.008 22.9189 233.558 22.1445L233.06 21.9922C230.54 21.2445 227.338 20.8475 223.455 20.8008L222.67 20.7959C219.115 20.7959 216.073 21.1491 213.544 21.8555C211.037 22.5618 208.964 23.4619 207.323 24.5557C205.705 25.6494 204.509 26.8913 203.734 28.2812C202.959 29.6484 202.572 31.027 202.572 32.417L202.58 32.8848C202.663 35.1891 203.367 36.9928 204.691 38.2959C206.127 39.6631 208.041 40.3467 210.433 40.3467C212.94 40.3467 214.934 39.7998 216.415 38.7061C217.919 37.5895 218.671 36.1198 218.671 34.2969C218.671 32.3828 218.181 30.9928 217.201 30.127C216.221 29.2383 215.059 28.7939 213.715 28.7939C212.917 28.7939 212.256 28.9079 211.732 29.1357C211.231 29.3636 210.764 29.5915 210.331 29.8193L209.989 29.4775C210.285 29.2497 210.627 28.999 211.014 28.7256C211.402 28.4294 211.892 28.1673 212.484 27.9395C213.077 27.7116 213.783 27.5179 214.603 27.3584C215.446 27.1761 216.449 27.085 217.611 27.085C220.049 27.085 221.804 27.609 222.875 28.6572C223.946 29.6826 224.481 31.0498 224.481 32.7588C224.481 34.6729 223.866 36.154 222.636 37.2021C221.405 38.2503 219.856 39.1048 217.987 39.7656C216.119 40.4264 214.079 40.9961 211.869 41.4746C209.681 41.9303 207.653 42.5342 205.785 43.2861C203.916 44.0153 202.367 45.0179 201.137 46.2939C199.906 47.5472 199.291 49.2676 199.291 51.4551C199.291 53.2324 199.598 54.7705 200.214 56.0693L200.464 56.5371C201.075 57.6038 201.868 58.4961 202.845 59.2139C203.985 60.0114 205.352 60.5924 206.947 60.957C208.362 61.2959 209.909 61.4869 211.586 61.5293L212.313 61.5381C214.364 61.5381 216.187 61.333 217.782 60.9229C219.4 60.5355 220.778 60.0228 221.918 59.3848C223.08 58.724 223.98 57.972 224.618 57.1289C225.279 56.2858 225.678 55.3971 225.814 54.4629H226.361C226.361 55.0781 226.543 55.7845 226.908 56.582C227.295 57.3568 227.933 58.1087 228.822 58.8379C229.711 59.5671 230.907 60.1709 232.411 60.6494C233.747 61.0879 235.379 61.3348 237.308 61.3896L238.153 61.4014C240.705 61.4014 242.802 61.1051 244.442 60.5127C246.083 59.943 247.382 59.0999 248.339 57.9834C249.296 56.8441 249.945 55.4883 250.287 53.916C250.629 52.321 250.8 50.498 250.8 48.4473V44.1064H246.903V48.3789C246.903 50.0195 246.755 51.1816 246.459 51.8652C246.185 52.526 245.695 52.8564 244.989 52.8564C244.1 52.8564 243.588 52.4919 243.451 51.7627C243.334 51.119 243.271 49.991 243.254 48.3789L243.246 47.5244V34.1602ZM85.7892 44.0273C85.7244 44.7923 85.4329 45.5137 84.9146 46.1914C84.3805 46.8963 83.5658 47.2705 82.4709 47.3145L82.2486 47.3193H80.9156V60H109.695V47.3193H108.772L108.346 47.3086C107.513 47.2659 106.795 47.095 106.193 46.7959L105.901 46.6357C105.196 46.1871 104.822 45.2778 104.778 43.9082L104.773 43.6279V22.334H80.9156V35.0146H81.6676C82.7613 35.0146 83.7183 35.3337 84.5387 35.9717L84.6916 36.0908C85.4328 36.709 85.8033 37.6378 85.8033 38.877V43.6963L85.7892 44.0273ZM102.62 13.9258C102.62 11.9661 101.856 10.2913 100.33 8.90137C98.9198 7.59843 96.9391 6.9057 94.3879 6.82422L93.8697 6.81641C91.1125 6.81641 88.982 7.51139 87.4781 8.90137L87.2092 9.16504C85.9073 10.5016 85.2564 12.0885 85.2564 13.9258L85.2648 14.2979C85.3515 16.1417 86.0896 17.7154 87.4781 19.0186C88.982 20.3857 91.1125 21.0693 93.8697 21.0693C96.6724 21.0693 98.8258 20.3857 100.33 19.0186C101.761 17.7154 102.521 16.1418 102.611 14.2979L102.62 13.9258ZM46.55 9.65332V22.334H47.3019C48.3957 22.334 49.3527 22.653 50.173 23.291C51.0161 23.9062 51.4377 24.8747 51.4377 26.1963V43.6963C51.4377 44.585 51.1415 45.4167 50.549 46.1914C49.9794 46.9434 49.0907 47.3193 47.883 47.3193H46.55V60H75.3293V47.3193H74.4064C73.2443 47.3193 72.2873 47.0915 71.5353 46.6357C70.7834 46.1572 70.4074 45.1546 70.4074 43.6279V9.65332H46.55ZM172.035 9.65332L172.021 10.3662C171.956 12.0159 171.664 13.5784 171.146 15.0537C170.576 16.7399 169.756 18.2438 168.685 19.5654C167.637 20.8643 166.372 21.8896 164.891 22.6416C163.433 23.3708 161.849 23.7354 160.14 23.7354V35.0146H165.506V45.918L165.513 46.7559C165.545 48.6924 165.691 50.498 165.951 52.1729L166.015 52.5283C166.354 54.2921 166.993 55.8258 167.933 57.1289C168.936 58.5189 170.405 59.6126 172.342 60.4102C174.158 61.1579 176.555 61.5549 179.532 61.6016L180.135 61.6064C182.891 61.6064 185.206 61.2463 187.08 60.5254L187.45 60.376C189.386 59.5557 190.913 58.4505 192.03 57.0605C193.169 55.6706 193.967 54.0186 194.422 52.1045C194.901 50.1904 195.14 48.1283 195.14 45.918V40.415H191.209V45.5078C191.209 46.2142 191.175 46.875 191.107 47.4902C191.038 48.0827 190.868 48.6182 190.594 49.0967C190.343 49.5524 189.99 49.9284 189.535 50.2246C189.102 50.498 188.521 50.6348 187.791 50.6348L187.549 50.6289C186.362 50.5729 185.565 50.0965 185.16 49.1992C184.801 48.3617 184.599 47.3148 184.554 46.0586L184.544 45.5078V35.0146H194.764V22.334H184.544V9.65332H172.035ZM190.544 16.334H200.764V22.2803C201.72 21.2662 202.799 20.3712 203.962 19.585L203.995 19.5635C206.295 18.0303 208.987 16.9055 211.916 16.0801L211.93 16.0762L212.535 15.915C215.586 15.1356 218.994 14.7959 222.67 14.7959C227.223 14.7959 231.319 15.2175 234.767 16.2402C237.909 17.1724 240.829 18.5019 243.155 20.459C245.346 22.2845 247.078 24.564 248.04 27.3232H248.042C248.832 29.5351 249.246 31.8229 249.246 34.1602V38.1064H256.8V48.4473C256.8 50.8179 256.603 53.0751 256.154 55.1729L256.15 55.1904C255.618 57.6351 254.566 59.8979 252.933 61.8428L252.894 61.8877C251.146 63.9267 248.913 65.299 246.479 66.1553L246.48 66.1562C246.467 66.1609 246.453 66.1643 246.441 66.1689C246.43 66.1725 246.421 66.1771 246.41 66.1807L246.409 66.1797C243.905 67.0713 241.081 67.4013 238.154 67.4014C235.487 67.4014 232.909 67.1184 230.592 66.3662C230.577 66.3614 230.562 66.3564 230.547 66.3516C230.545 66.3507 230.542 66.3504 230.539 66.3496C228.878 65.8166 227.238 65.0853 225.779 64.0557C225.485 64.2467 225.186 64.4286 224.884 64.6006L224.866 64.6104L224.85 64.6201C223.146 65.5741 221.256 66.2512 219.276 66.7324L219.277 66.7334C219.261 66.7374 219.245 66.7402 219.23 66.7441C219.213 66.7482 219.196 66.7537 219.179 66.7578L219.178 66.7568C217.52 67.1751 215.774 67.4104 213.964 67.4971C215.039 67.6882 216.09 67.9186 217.116 68.1924C219.11 68.721 221.002 69.4171 222.771 70.2949C223.514 69.892 224.285 69.5535 225.055 69.2646C226.839 68.5724 228.719 68.334 230.516 68.334L230.516 74.334L230.03 74.3428C228.919 74.3826 227.964 74.5618 227.166 74.8809L226.832 75.0107C226.07 75.3173 225.429 75.6499 224.911 76.0088C224.204 76.5329 223.646 77.0684 223.236 77.6152L222.837 77.3164C220.953 75.9457 218.72 74.8891 216.138 74.1465L215.579 73.9922C212.781 73.2445 209.662 72.8475 206.223 72.8008L205.531 72.7959C202.067 72.7959 198.945 73.1377 196.165 73.8213L195.649 73.9531C193.088 74.63 190.868 75.5773 188.988 76.7949L188.617 77.042C186.792 78.2971 185.378 79.8326 184.373 81.6484L184.179 82.0156C183.238 83.8688 182.767 86.0022 182.767 88.416L182.774 88.9111C182.838 91.368 183.382 93.5044 184.408 95.3203C185.501 97.2572 187.074 98.8978 189.124 100.242C187.028 101.587 185.422 102.977 184.305 104.412L184.103 104.678C183.121 106.01 182.63 107.403 182.63 108.855C182.63 110.154 182.892 111.351 183.416 112.444C183.963 113.538 184.977 114.529 186.458 115.418C185.251 116.033 184.123 116.865 183.075 117.913C182.026 118.961 181.502 120.306 181.502 121.946L181.51 122.325C181.589 124.193 182.259 125.65 183.519 126.697C184.886 127.814 186.686 128.623 188.919 129.124C191.152 129.648 193.716 129.956 196.61 130.047C198.78 130.115 200.996 130.158 203.256 130.175L205.531 130.184C213.962 130.184 220.399 129.158 224.842 127.107C229.169 125.121 231.4 122.279 231.535 118.581L231.541 118.221C231.541 115.988 231.017 114.153 229.969 112.718C228.987 111.393 227.704 110.329 226.12 109.525L225.799 109.368C224.09 108.548 222.119 107.978 219.886 107.659C217.676 107.34 215.409 107.135 213.084 107.044C210.783 106.93 208.527 106.896 206.317 106.941C204.107 106.964 202.135 106.919 200.404 106.805C198.672 106.668 197.282 106.417 196.234 106.053C195.186 105.688 194.662 105.062 194.662 104.173C194.662 103.694 194.901 103.296 195.379 102.977C198.41 103.774 201.794 104.173 205.531 104.173C211.976 104.173 217.107 102.986 220.922 100.612L221.287 100.379C225.138 97.8496 227.463 94.181 228.26 89.373C228.351 88.8717 228.648 88.359 229.149 87.835C229.607 87.3564 230.24 87.0871 231.048 87.0273L231.405 87.0146H233.661V74.334H230.516L230.516 68.334H239.66V73.8936C240.52 73.0372 241.47 72.2697 242.483 71.585L242.516 71.5635C244.816 70.0303 247.508 68.9055 250.437 68.0801L250.45 68.0762L251.056 67.915C254.106 67.1356 257.514 66.7959 261.191 66.7959C265.743 66.7959 269.839 67.2175 273.287 68.2402C276.43 69.1724 279.35 70.5019 281.676 72.459C283.867 74.2845 285.598 76.564 286.561 79.3232H286.563C287.353 81.5351 287.767 83.8229 287.767 86.1602V90.1064H295.32V100.447C295.32 102.818 295.124 105.075 294.674 107.173L294.67 107.19C294.139 109.635 293.087 111.898 291.453 113.843L291.414 113.888C289.667 115.927 287.434 117.299 284.999 118.155L285 118.156C284.987 118.161 284.974 118.164 284.961 118.169C284.951 118.173 284.941 118.177 284.931 118.181L284.93 118.18C282.426 119.071 279.601 119.401 276.674 119.401C274.008 119.401 271.429 119.118 269.112 118.366C269.098 118.361 269.083 118.356 269.068 118.352C269.065 118.351 269.062 118.35 269.06 118.35C267.398 117.817 265.759 117.085 264.3 116.056C264.006 116.247 263.707 116.429 263.404 116.601L263.387 116.61L263.37 116.62C261.667 117.574 259.776 118.251 257.796 118.732L257.797 118.733C257.785 118.736 257.773 118.739 257.761 118.742C257.74 118.747 257.72 118.753 257.699 118.758L257.698 118.757C255.541 119.301 253.235 119.538 250.834 119.538C248.507 119.538 246.261 119.309 244.131 118.805V118.807C241.912 118.299 239.8 117.442 237.925 116.129L237.869 116.09L237.814 116.049C237.664 115.939 237.517 115.825 237.372 115.71C237.487 116.541 237.541 117.38 237.541 118.221C237.541 121.399 236.595 124.389 234.657 126.959C232.782 129.447 230.205 131.245 227.356 132.555L227.357 132.556C221.75 135.144 214.29 136.184 205.53 136.184C202.418 136.184 199.381 136.137 196.421 136.044C193.249 135.944 190.296 135.604 187.605 134.978C184.723 134.331 181.994 133.199 179.724 131.345L179.704 131.329L179.686 131.313C176.724 128.854 175.502 125.437 175.502 121.946C175.502 120.593 175.707 119.263 176.135 118H56.424V116.944C55.5715 117.428 54.6747 117.829 53.7482 118.155L53.7492 118.156C53.7299 118.163 53.71 118.169 53.6906 118.176C53.6867 118.177 53.6828 118.179 53.6789 118.181L53.6779 118.18C51.1736 119.071 48.3492 119.401 45.4221 119.401C42.7555 119.401 40.1772 119.119 37.8605 118.366C37.8454 118.361 37.8307 118.356 37.8156 118.352C37.8132 118.351 37.8102 118.35 37.8078 118.35C36.1465 117.817 34.5074 117.085 33.049 116.056C32.7543 116.247 32.4551 116.429 32.1525 116.601L32.1359 116.61L32.1183 116.62C30.3871 117.59 28.4637 118.275 26.4484 118.758L26.4474 118.757C24.2901 119.301 21.9834 119.538 19.5822 119.538C17.2547 119.538 15.0093 119.309 12.8791 118.805V118.807C10.7989 118.331 8.81367 117.548 7.0285 116.37L6.67401 116.129L6.61737 116.09L6.56171 116.049C4.77442 114.736 3.35458 113.076 2.31854 111.143L2.11639 110.753L2.0871 110.695L2.05975 110.638C0.985233 108.369 0.559753 105.915 0.559753 103.455C0.559753 100.119 1.52745 96.7588 4.0871 94.1289C4.68692 93.5069 5.32581 92.9366 6.00116 92.416C4.45343 90.0022 3.841 87.208 3.841 84.417C3.841 81.8752 4.55742 79.5002 5.76288 77.3604C7.08758 74.9837 9.0091 73.0875 11.2316 71.585L11.2473 71.5742L11.2639 71.5635C13.5637 70.0302 16.2559 68.9055 19.1848 68.0801L19.1984 68.0762L19.8039 67.915C22.8545 67.1355 26.2621 66.7959 29.9387 66.7959C34.4915 66.7959 38.5871 67.2174 42.0353 68.2402C45.1779 69.1724 48.0976 70.5019 50.424 72.459C50.4286 72.4628 50.4341 72.4669 50.4387 72.4707C50.4456 72.4766 50.4532 72.4824 50.4601 72.4883C52.6346 74.309 54.3525 76.5784 55.3098 79.3232C55.3122 79.33 55.3152 79.337 55.3176 79.3438C55.3235 79.3608 55.3303 79.3775 55.3361 79.3945C55.8986 80.987 56.2653 82.6184 56.424 84.2793V68.334H87.6799C90.5449 67.2337 93.7314 66.7959 97.0139 66.7959C99.191 66.7959 101.322 67.0907 103.369 67.7275C105.527 68.3682 107.518 69.3887 109.273 70.8105C109.275 70.8127 109.279 70.8152 109.281 70.8174C109.294 70.8276 109.307 70.8374 109.32 70.8477C109.557 71.0389 109.786 71.2363 110.009 71.4395C110.267 71.2232 110.533 71.0137 110.806 70.8115L110.849 70.7803C112.602 69.5054 114.52 68.5285 116.581 67.8564C118.718 67.1442 120.933 66.7959 123.195 66.7959C126.746 66.7959 130.167 67.3062 133.14 68.6865C135.716 69.8826 138.018 71.5372 139.782 73.7744C139.786 73.7795 139.791 73.7849 139.795 73.79C139.801 73.7977 139.808 73.8049 139.814 73.8125C140.898 75.1814 141.769 76.6728 142.402 78.2764V68.334H146.957C146.815 67.5545 146.742 66.7505 146.742 65.9258C146.742 65.8873 146.743 65.8489 146.743 65.8105C146.466 65.8819 146.187 65.9483 145.905 66.0117L145.906 66.0127C145.904 66.0134 145.901 66.014 145.898 66.0146C145.881 66.0184 145.864 66.0226 145.847 66.0264L145.846 66.0254C143.221 66.6344 140.465 66.9228 137.601 66.9229C134.805 66.9229 132.093 66.6459 129.482 66.0723C129.475 66.0709 129.469 66.0697 129.463 66.0684C129.459 66.0674 129.454 66.0674 129.449 66.0664L129.43 66.2051H109.213V66H40.55V41.3193H45.4377V28.334H40.55V3.65332H76.4074V16.334H79.4709C79.3288 15.5546 79.256 14.7505 79.256 13.9258C79.256 10.2417 80.7324 7.00379 83.3723 4.52637L83.4055 4.49512C86.3549 1.7691 90.1346 0.816472 93.8693 0.816406C97.605 0.816406 101.407 1.74765 104.368 4.46582L104.369 4.46484C104.374 4.46918 104.378 4.47418 104.383 4.47852C104.389 4.48423 104.396 4.48939 104.403 4.49512L104.402 4.49609C107.081 6.95069 108.619 10.1931 108.619 13.9258C108.619 14.752 108.547 15.556 108.403 16.334H110.773V25.1494C110.787 25.1216 110.802 25.0932 110.817 25.0654L110.832 25.0352L110.849 25.0049C112.183 22.5894 114.053 20.6127 116.328 19.0732C118.513 17.5951 120.97 16.5457 123.61 15.8535C126.283 15.1295 129.114 14.7959 132.064 14.7959C134.756 14.7959 137.336 15.0499 139.772 15.6025L139.804 15.377H160.075V17.7354H160.14C160.955 17.7354 161.609 17.5702 162.19 17.2832C162.905 16.9176 163.501 16.4352 164.016 15.7969L164.024 15.7881L164.243 15.5029C164.744 14.8249 165.153 14.0461 165.461 13.1338L165.473 13.0986L165.486 13.0645C165.838 12.0614 166.034 10.9381 166.034 9.65332V3.65332H190.544V16.334Z" fill="#001B2E"/>
</svg>
